<svg width="100" height="100" viewBox="0 0 100 100" fill="none" xmlns="http://www.w3.org/2000/svg"><path d="M99.4033 29.3807C99.3977 29.343 99.3904 29.3055 99.3818 29.2682C98.8221 26.2871 97.8928 23.4354 96.6436 20.7613C96.6092 20.6594 96.5633 20.5609 96.5061 20.4672C95.3439 18.0377 93.9168 15.7582 92.2619 13.6668C92.2006 13.5639 92.1277 13.4662 92.0391 13.3775C92.0271 13.3656 92.0141 13.3555 92.0018 13.3439C90.3762 11.3371 88.5389 9.50859 86.5242 7.89219C86.5129 7.88008 86.5027 7.86738 86.491 7.85547C86.4 7.76465 86.2994 7.68965 86.1934 7.62773C84.0936 5.9832 81.8059 4.56816 79.3695 3.41797C79.2768 3.36113 79.1791 3.31602 79.0783 3.28184C76.3889 2.0416 73.5217 1.12305 70.5254 0.578906C70.4881 0.570508 70.4506 0.563477 70.4129 0.558008C68.3598 0.191406 66.2469 0 64.09 0C62.4312 0 60.7994 0.115625 59.2 0.33418C59.1949 0.33457 59.1898 0.335742 59.1846 0.336328C44.0178 2.41758 31.8398 14.0041 28.8738 28.8748C24.9809 29.6504 21.2318 31.0658 17.7945 33.0779C17.0949 33.4875 16.86 34.3865 17.2693 35.0861C17.6789 35.7857 18.5781 36.0207 19.2773 35.6113C22.1213 33.9465 25.1986 32.727 28.3959 31.9813C28.2549 33.2719 28.1801 34.5822 28.1801 35.91C28.1801 38.0648 28.3713 40.176 28.7369 42.2271C28.7428 42.2674 28.75 42.3074 28.7592 42.3471C29.3033 45.3424 30.2217 48.2086 31.4615 50.8971C31.4957 50.9982 31.5412 51.0961 31.598 51.1893C32.7484 53.6254 34.1631 55.9129 35.8076 58.0127C35.8697 58.1187 35.9445 58.2193 36.0355 58.3104C36.0471 58.3221 36.0598 58.3318 36.0717 58.343C37.6883 60.3578 39.5168 62.1953 41.524 63.8213C41.5355 63.8336 41.5457 63.8465 41.5576 63.8584C41.6461 63.9469 41.7437 64.0199 41.8465 64.0811C43.9381 65.7361 46.2176 67.1633 48.6471 68.3254C48.7408 68.3828 48.8395 68.4285 48.9412 68.4629C51.6156 69.7125 54.4678 70.6418 57.4494 71.2016C57.4859 71.21 57.5227 71.217 57.5596 71.2227C59.6779 71.6135 61.8604 71.8195 64.09 71.8195C65.4182 71.8195 66.7289 71.7447 68.0199 71.6035C64.6104 86.1773 51.5078 97.0641 35.9098 97.0641C17.7275 97.0641 2.93516 82.2717 2.93516 64.0895C2.93516 54.9211 6.6082 46.4043 13.2775 40.1076C13.867 39.5512 13.8936 38.6223 13.3373 38.0328C12.7807 37.4434 11.8518 37.4168 11.2625 37.973C7.74356 41.2953 4.97402 45.2162 3.03125 49.627C1.02012 54.1947 0 59.0605 0 64.09C0 83.891 16.1094 100 35.9102 100C53.3035 100 67.8463 87.5695 71.1262 71.126C86.0838 68.1424 97.7201 55.8396 99.701 40.549C99.702 40.54 99.7039 40.5312 99.7047 40.5225C99.8992 39.0119 100 37.4725 100 35.91C100 33.6807 99.7939 31.4986 99.4033 29.3807ZM90.84 16.652C91.8197 18.0092 92.7002 19.4426 93.4676 20.943L67.4594 46.9512C66.6566 45.4795 65.7533 44.0705 64.76 42.732L90.84 16.652ZM89.0064 14.3338L62.9047 40.4355C61.8281 39.2084 60.6705 38.0541 59.4381 36.9834L85.5373 10.8844C86.7764 11.9477 87.9367 13.1004 89.0064 14.3338ZM83.2104 9.05957L57.1303 35.1398C55.7859 34.1518 54.3711 33.2541 52.8939 32.4576L78.898 6.45332C80.4051 7.21387 81.8465 8.08555 83.2104 9.05957ZM70.6832 3.59805C72.5246 3.97344 74.3105 4.50332 76.0273 5.17246L50.0961 31.1035C48.4402 30.3887 46.7211 29.7939 44.9484 29.3326L70.6832 3.59805ZM60.0252 3.18613C61.3576 3.02148 62.7141 2.93535 64.0902 2.93535C65.091 2.93535 66.0809 2.98262 67.0594 3.07031L41.5119 28.6178C39.6861 28.3307 37.8154 28.1801 35.9102 28.1801C35.6119 28.1801 35.3141 28.1875 35.0164 28.1949L60.0252 3.18613ZM54.7852 4.27441L32.4545 26.6053C35.6109 15.892 44.0721 7.43066 54.7852 4.27441ZM31.2508 38.8793C31.1629 37.9006 31.1156 36.9107 31.1156 35.91C31.1156 34.5338 31.2018 33.1773 31.3664 31.8449L31.8412 31.3701C33.1867 31.2033 34.5453 31.1154 35.9104 31.1154C36.9111 31.1154 37.901 31.1627 38.8795 31.2504L31.2508 38.8793ZM31.7781 42.5029L42.5029 31.7781C44.3445 32.1533 46.1303 32.6832 47.8471 33.3525L33.3523 47.8475C32.6834 46.1305 32.1533 44.3445 31.7781 42.5029ZM37.2398 55.0303C36.2656 53.6662 35.3939 52.2248 34.6334 50.718L50.7182 34.6332C52.225 35.3939 53.6664 36.2654 55.0305 37.2397L37.2398 55.0303ZM39.0645 57.3572L57.3572 39.0645C58.5963 40.1279 59.7566 41.2805 60.8264 42.5139L42.5141 60.8262C41.2805 59.7566 40.1279 58.5963 39.0645 57.3572ZM44.832 62.6598L62.66 44.832C63.6398 46.1893 64.5201 47.6225 65.2875 49.1229L49.1227 65.2877C47.6225 64.5199 46.1891 63.6395 44.832 62.6598ZM57.3004 68.1801C55.467 67.7949 53.6889 67.258 51.9807 66.5811L66.5813 51.9807C67.258 53.6889 67.7949 55.467 68.1803 57.3004L57.3004 68.1801ZM68.6648 67.8857L67.8859 68.6646C66.64 68.8082 65.3738 68.8846 64.09 68.8846C63.0146 68.8846 61.9516 68.8311 60.9021 68.7299L68.7299 60.9021C68.8311 61.9514 68.8846 63.0145 68.8846 64.09C68.8846 65.3738 68.8084 66.6398 68.6648 67.8857ZM70.6166 54.8641C70.1467 53.0984 69.5453 51.3863 68.8238 49.7383L94.7613 23.801C95.4381 25.5092 95.975 27.2873 96.3602 29.1205L70.6166 54.8641ZM73.0574 67.6449L95.8252 44.877C92.7166 55.8635 84.0435 64.5363 73.0574 67.6449ZM96.8449 39.7057L71.8119 64.7387C71.8158 64.5227 71.8201 64.3068 71.8201 64.0898C71.8201 62.1133 71.657 60.1744 71.3482 58.2838L96.9102 32.7221C97.0113 33.7713 97.0648 34.8344 97.0648 35.91C97.0646 37.1937 96.9883 38.46 96.8449 39.7057Z" fill="#F0B90B"></path></svg>