<svg
		width="100"
		height="94"
		viewBox="0 0 100 94"
		fill="none"
		xmlns="http://www.w3.org/2000/svg"
	>
		<path
			d="M91.8286 6.5948C85.7978 1.27576 77.6702 -1.00152 69.7538 0.409498C61.5471 1.87794 54.359 6.78328 50.0001 13.8901C45.6413 6.78328 38.4532 1.87794 30.2465 0.409498C22.3303 -0.999368 14.2035 1.27771 8.17168 6.5948C0.918555 13.2422 -1.67104 24.4766 1.06681 37.4201C1.07696 37.4687 1.10958 37.5049 1.12384 37.5516C1.19357 37.7627 1.30041 37.9596 1.43948 38.133C1.47093 38.1709 1.48382 38.2178 1.51956 38.2536C1.56566 38.2879 1.61352 38.3198 1.66313 38.3491C1.74809 38.4188 1.83989 38.4799 1.93717 38.5311C2.12292 38.6286 2.32586 38.6895 2.53466 38.7102C2.58994 38.7157 2.64248 38.7421 2.69775 38.7421C2.75733 38.7337 2.81651 38.7221 2.87472 38.7075C2.93077 38.71 2.98683 38.7096 3.04269 38.7061C3.09153 38.6958 3.12766 38.6633 3.17473 38.6491C3.28021 38.6159 3.38197 38.5719 3.47827 38.5178C3.57768 38.4659 3.67144 38.4036 3.75797 38.3319C3.79508 38.3008 3.84118 38.2883 3.87594 38.2536L9.73896 32.3921L9.75849 32.3792C11.0437 31.0903 13.1261 31.0729 14.4328 32.34C15.7395 33.607 15.7862 35.689 14.5373 37.0132L4.92092 46.6296C4.49824 47.0497 4.33222 47.6638 4.48535 48.2398C4.63848 48.8158 5.08773 49.2663 5.66315 49.421C6.23857 49.5756 6.85306 49.4114 7.27457 48.9899L16.7856 39.479C16.7987 39.4665 16.8161 39.463 16.8292 39.4501C16.854 39.4253 16.8698 39.3954 16.8942 39.3704L22.6746 33.59C22.6893 33.5763 22.7088 33.5722 22.7231 33.558C24.0405 32.2948 26.1193 32.2948 27.4368 33.558C28.7287 34.8543 28.7353 36.9496 27.4514 38.2539L27.4319 38.2668L9.68524 56.0153C9.26432 56.4364 9.09986 57.0499 9.25397 57.6251C9.40808 58.2003 9.85732 58.6494 10.4324 58.8035C11.0074 58.9576 11.6211 58.7931 12.0422 58.3722L27.4483 42.9841L27.4886 42.9436C28.8056 41.677 30.8973 41.708 32.1763 43.0132C33.4553 44.3183 33.4438 46.4102 32.1507 47.7013L28.6175 51.2351L28.6156 51.2367L28.6148 51.2377L15.7371 64.1159C15.316 64.537 15.1518 65.1505 15.3059 65.7257C15.46 66.3008 15.9092 66.75 16.4842 66.9041C17.0593 67.0582 17.673 66.8938 18.0941 66.4729L30.9745 53.5915C32.2765 52.2899 34.3872 52.2904 35.6888 53.5925C36.9904 54.8945 36.9901 57.0052 35.6878 58.3068C35.6808 58.3138 35.6788 58.3238 35.6718 58.331L22.7543 71.2485C22.7459 71.2569 22.7438 71.2684 22.7356 71.2768C22.727 71.2856 22.7153 71.2886 22.707 71.2973C22.6461 71.3788 22.5934 71.4657 22.5492 71.5573C22.4846 71.6436 22.4285 71.7362 22.3816 71.8333C22.3508 71.9364 22.3301 72.0423 22.3201 72.1493C22.2523 72.3507 22.2568 72.5695 22.3324 72.7681C22.3469 72.875 22.3719 72.9802 22.4068 73.0822C22.4588 73.1797 22.5199 73.2719 22.5899 73.3576C22.6367 73.4451 22.6918 73.5281 22.7545 73.6053C22.7629 73.6137 22.7744 73.616 22.7828 73.624C22.7916 73.6324 22.7946 73.6441 22.8033 73.6524C30.9434 80.9643 39.7589 87.4875 49.1313 93.1343C49.6652 93.4599 50.3361 93.4599 50.8697 93.1343C60.2419 87.4875 69.0574 80.9643 77.1975 73.6524C77.2065 73.6441 77.2092 73.6324 77.218 73.624C77.2264 73.6158 77.238 73.6135 77.2464 73.6053C77.3089 73.5281 77.3639 73.4451 77.411 73.3576C77.4807 73.2721 77.5421 73.1797 77.594 73.0822C77.6472 72.8769 77.6921 72.6695 77.7282 72.4605C77.7222 72.3554 77.7063 72.2513 77.6805 72.1493C77.6706 72.0421 77.6501 71.9362 77.619 71.8333C77.5721 71.7362 77.5159 71.6436 77.4514 71.5573C77.4073 71.4657 77.3544 71.3788 77.2934 71.2973C77.2852 71.2884 77.2735 71.2856 77.2649 71.2768C77.2567 71.2684 77.2546 71.2569 77.2462 71.2485L64.3287 58.331C64.3216 58.3238 64.3197 58.314 64.3126 58.3068C63.0106 57.0052 63.0102 54.8945 64.3117 53.5925C65.6133 52.2904 67.724 52.2901 69.026 53.5915L81.9064 66.4729C82.5572 67.1237 83.6123 67.1237 84.2633 66.4729C84.9141 65.822 84.9141 64.7667 84.2633 64.1159L71.3859 51.2371L71.3851 51.2361L71.3831 51.2345L67.8499 47.7006C67.0075 46.8585 66.6786 45.6311 66.9866 44.4806C67.2946 43.3302 68.1931 42.4313 69.3436 42.1229C70.494 41.8145 71.7216 42.1432 72.5639 42.9853L72.5838 42.9985L87.9586 58.3718C88.6104 59.017 89.6611 59.0144 90.3096 58.3658C90.958 57.7173 90.9608 56.6667 90.3154 56.0149L74.9335 40.6476L74.9206 40.6283C74.9101 40.6175 74.897 40.6107 74.8863 40.6002L72.5686 38.2664L72.5637 38.2631C71.2634 36.9623 71.2636 34.8538 72.5645 33.5535C73.8653 32.2532 75.9738 32.2534 77.2741 33.5543C77.2883 33.5685 77.3079 33.5728 77.3223 33.5865L82.9449 39.2091C83.0121 39.2892 83.0832 39.3632 83.1719 39.4521L83.1742 39.4548L83.1746 39.455L83.1758 39.4563L92.7255 48.9897C93.1468 49.4112 93.7613 49.5757 94.3369 49.4208C94.9125 49.2661 95.3616 48.8157 95.5147 48.2396C95.6679 47.6636 95.5018 47.0497 95.0792 46.6294L85.5148 37.0863C85.4859 37.0492 85.453 37.0152 85.4216 36.9802L85.4138 36.9675C84.2129 35.6522 84.2647 33.6234 85.531 32.371C86.8478 31.1112 88.9232 31.1112 90.2398 32.371L96.1239 38.2536C96.1587 38.2883 96.205 38.3008 96.2419 38.3319C96.4159 38.4715 96.6134 38.579 96.8253 38.6489C96.8724 38.6631 96.9085 38.6956 96.9574 38.7059C97.0703 38.7294 97.1853 38.7413 97.3006 38.7413L97.3023 38.7417H97.3029H97.3039C97.5064 38.7397 97.7068 38.7006 97.8951 38.6262C97.9469 38.6008 97.9973 38.5727 98.0461 38.542C98.1797 38.4774 98.3037 38.395 98.4153 38.2971C98.4352 38.2789 98.4614 38.2727 98.4807 38.2536C98.5159 38.2184 98.5286 38.1719 98.5598 38.1344C98.6458 38.0342 98.7192 37.9236 98.7782 37.8055C98.8157 37.7301 98.8473 37.6518 98.8723 37.5715C98.8952 37.5221 98.9155 37.4717 98.9331 37.4203C101.671 24.4766 99.0815 13.2422 91.8286 6.5948ZM96.2122 33.6285L92.5968 30.014C89.9603 27.4967 85.8107 27.4967 83.174 30.014C82.3499 30.8447 81.7581 31.877 81.4573 33.008L79.6467 31.1973C79.6211 31.1715 79.5865 31.1629 79.5594 31.1393C77.2505 28.8767 73.6477 28.6056 71.0263 30.4973C68.4049 32.389 67.5267 35.8935 68.9463 38.7977C66.6497 39.2354 64.7529 40.8492 63.953 43.0458C63.1532 45.2424 63.5681 47.6982 65.0455 49.51C63.8773 49.7927 62.8086 50.3894 61.9553 51.2357C59.3715 53.8286 59.3585 58.0189 61.9262 60.6276C61.9385 60.6409 61.9422 60.6585 61.9553 60.6714L73.6399 72.356C66.2715 78.8204 58.3625 84.6414 49.9999 89.755C41.6374 84.6412 33.7283 78.8204 26.36 72.356L38.0446 60.6714C38.0577 60.6585 38.0612 60.6409 38.0737 60.6276C40.6414 58.0187 40.6283 53.8286 38.0446 51.2357C37.1905 50.3901 36.1218 49.7936 34.9538 49.5106C36.4306 47.6996 36.8461 45.2451 36.0476 43.0489C35.2491 40.8527 33.3545 39.2382 31.0593 38.7983C32.2951 36.254 31.7874 33.2068 29.7938 31.2004C27.1864 28.7075 23.0875 28.6792 20.446 31.136C20.4167 31.1616 20.3794 31.1709 20.3516 31.1989L18.5271 33.0234C18.2377 31.8899 17.6515 30.8541 16.8292 30.022C14.2414 27.4393 10.0562 27.4225 7.44762 29.9844C7.43414 29.997 7.41637 30.0008 7.40328 30.0138L3.78766 33.6283C2.28269 23.2086 4.6293 14.3624 10.4242 9.05235C15.7227 4.46909 22.7975 2.50356 29.701 3.69718C37.5383 4.99764 44.2281 10.0549 48.5366 17.9396C48.855 18.4398 49.4069 18.7429 49.9999 18.7429C50.5929 18.7429 51.1449 18.44 51.4633 17.9396C55.7719 10.0549 62.4616 4.99783 70.2989 3.69718C77.2022 2.50395 84.2768 4.46929 89.5757 9.05235C95.3706 14.3626 97.7174 23.2088 96.2122 33.6285Z"
			fill="#F0B90B"
		></path>
	</svg>