<svg
		width="203"
		height="52"
		viewBox="0 0 203 52"
		fill="none"
		xmlns="http://www.w3.org/2000/svg"
	>
		<path
			d="M73.3342 25.9587H63.7599V5.81905H73.1279C77.2547 5.81905 79.7721 7.88254 79.7721 11.019V11.0603C79.7721 13.3302 78.5753 14.6095 77.1309 15.3937C79.4419 16.3016 80.8864 17.6222 80.8864 20.346V20.3873C80.8864 24.1429 77.915 25.9587 73.3342 25.9587ZM75.3564 11.8032C75.3564 10.4825 74.3247 9.73969 72.4676 9.73969H68.0931V13.9905H72.1787C74.1183 13.9905 75.3564 13.3714 75.3564 11.8444V11.8032ZM76.4707 19.8508C76.4707 18.4889 75.4801 17.6635 73.2104 17.6635H68.0931V22.0794H73.3755C75.3151 22.0794 76.5119 21.3778 76.5119 19.8921V19.8508H76.4707ZM85.7561 25.9587V5.81905H90.1718V25.9587H85.7561ZM110.228 25.9587L100.489 13.1651V25.9587H96.1144V5.81905H100.2L109.651 18.2413V5.81905H114.025V25.9587H110.228ZM133.916 25.9587L132.059 21.4603H123.558L121.701 25.9587H117.203L125.828 5.65397H129.913L138.539 25.9587H133.916ZM127.809 11.019L125.126 17.5397H130.491L127.809 11.019ZM155.913 25.9587L146.173 13.1651V25.9587H141.799V5.81905H145.884L155.335 18.2413V5.81905H159.709V25.9587H155.913ZM174.277 26.3302C168.334 26.3302 163.96 21.7492 163.96 15.9714V15.9302C163.96 10.1937 168.293 5.53016 174.483 5.53016C178.28 5.53016 180.55 6.80952 182.407 8.62539L179.601 11.8857C178.033 10.4825 176.464 9.61587 174.442 9.61587C171.058 9.61587 168.582 12.4222 168.582 15.8889V15.9302C168.582 19.3968 170.976 22.2444 174.442 22.2444C176.753 22.2444 178.156 21.3365 179.725 19.8921L182.531 22.7397C180.467 24.927 178.198 26.3302 174.277 26.3302ZM186.121 25.9587V5.81905H201.308V9.78095H190.537V13.8667H200.029V17.8286H190.537V22.0794H201.473V26.0413H186.121V25.9587ZM111.92 46.346C107.752 46.346 104.657 43.127 104.657 39C104.657 34.9143 107.711 31.6127 112.003 31.6127C114.644 31.6127 116.212 32.5206 117.574 33.8413L115.965 35.6984C114.809 34.6254 113.612 33.9238 111.962 33.9238C109.238 33.9238 107.257 36.1524 107.257 38.9587C107.257 41.7651 109.238 44.0349 111.962 44.0349C113.695 44.0349 114.85 43.3333 116.047 42.1778L117.657 43.7873C116.212 45.3556 114.603 46.346 111.92 46.346ZM123.476 40.1143V46.1397H120.958V31.8603H123.476V37.8032H130.285V31.8603H132.802V46.1397H130.285V40.1143H123.476ZM150.713 46.0984H148.072L146.627 42.673H139.9L138.415 46.0984H135.856L142.129 31.7365H144.44L150.713 46.0984ZM143.243 34.7492L140.808 40.4444H145.719L143.243 34.7492ZM162.928 46.0984L159.42 41.146H156.284V46.0984H153.767V31.819H160.122C163.382 31.819 165.404 33.5524 165.404 36.3587C165.404 38.7111 164.001 40.1556 162.02 40.6921L165.858 46.0984H162.928ZM159.916 34.1302H156.284V38.9175H159.957C161.732 38.9175 162.887 37.9683 162.887 36.5238C162.887 34.9556 161.773 34.1302 159.916 34.1302ZM171.884 31.8603V46.1397H169.366V31.8603H171.884ZM182.118 46.0984H179.601V34.1714H175.061V31.8603H186.616V34.1714H182.077V46.0984H182.118ZM197.264 46.0984H194.746V40.4857L189.093 31.8603H192.064L196.067 38.1746L200.111 31.8603H203L197.346 40.4444V46.0984H197.264ZM97.9303 37.8032H63.7599V40.1968H97.9303V37.8032ZM5.86012 20.0984L0 25.9587L5.86012 31.819L11.7202 25.9587L5.86012 20.0984ZM25.9992 11.7206L36.0687 21.7905L41.9289 15.9302L25.9992 0L10.0695 15.9302L15.9297 21.7905L25.9992 11.7206ZM46.1383 20.0984L40.2782 25.9587L46.1383 31.819L51.9984 25.9587L46.1383 20.0984ZM25.9992 40.2381L15.9297 30.1683L10.0695 36.0286L25.9992 52L41.9289 36.0698L36.0687 30.2095L25.9992 40.2381ZM25.9992 31.8603L31.8593 26L25.9992 20.1397L20.1391 26L25.9992 31.8603Z"
			fill="#F0B90B"
		></path>
	</svg>