<svg width="380" height="280" viewBox="0 0 380 280" fill="none" xmlns="http://www.w3.org/2000/svg">
<g clip-path="url(#clip0)">
<path fill-rule="evenodd" clip-rule="evenodd" d="M188.954 174.429L165.365 198.019H129.197V225.745H165.365C172.719 225.745 179.771 222.824 184.971 217.624L208.56 194.035L188.954 174.429Z" fill="#1E2026"/>
<g style="mix-blend-mode:soft-light" opacity="0.6">
<path style="mix-blend-mode:soft-light" opacity="0.6" fill-rule="evenodd" clip-rule="evenodd" d="M188.954 174.429L165.365 198.019H129.197V225.745H165.365C172.719 225.745 179.771 222.824 184.971 217.624L208.56 194.035L188.954 174.429Z" fill="url(#paint0_linear)"/>
</g>
<path d="M87.3164 205.896L104.487 223.067L121.658 205.896L104.487 188.726L87.3164 205.896Z" fill="#FFBEA6"/>
<path fill-rule="evenodd" clip-rule="evenodd" d="M258.419 202.076L295.583 202.165C320.316 202.224 332.744 172.322 315.255 154.833L295.833 135.412L276.228 155.017L295.65 174.439L258.486 174.349L258.419 202.076Z" fill="#1E2026"/>
<path d="M264.29 249.922V254.61C264.29 272.969 249.408 287.852 231.049 287.852V249.922H264.29Z" fill="#484E58"/>
<path fill-rule="evenodd" clip-rule="evenodd" d="M238.758 237.112H202.145L123.352 315.906L147.858 340.413L216.501 271.77H238.758V237.112Z" fill="#929AA5"/>
<g style="mix-blend-mode:soft-light" opacity="0.6">
<path style="mix-blend-mode:soft-light" opacity="0.6" fill-rule="evenodd" clip-rule="evenodd" d="M238.758 237.112H202.145L123.352 315.906L147.858 340.413L216.501 271.77H238.758V237.112Z" fill="url(#paint1_linear)"/>
</g>
<path fill-rule="evenodd" clip-rule="evenodd" d="M265.012 250.492H230.354V369.459H265.012V250.492Z" fill="#929AA5"/>
<path d="M211.187 125.821C202.382 134.627 202.382 148.903 211.187 157.709C219.993 166.515 234.27 166.515 243.075 157.709L211.187 125.821Z" fill="#FFBEA6"/>
<path d="M211.184 125.82C219.989 117.014 234.266 117.014 243.072 125.82C251.877 134.625 251.877 148.902 243.072 157.708L211.184 125.82Z" fill="#474D57"/>
<path fill-rule="evenodd" clip-rule="evenodd" d="M245.366 174.343L232.382 187.326L219.399 174.343H188.947V250.66H265.265V174.343H245.366Z" fill="#1E2026"/>
<g style="mix-blend-mode:soft-light" opacity="0.6">
<path style="mix-blend-mode:soft-light" opacity="0.6" fill-rule="evenodd" clip-rule="evenodd" d="M245.365 174.343L232.382 187.326L219.399 174.343H188.947V250.66H265.265V174.343H245.365Z" fill="url(#paint2_linear)"/>
</g>
<path d="M283.281 113.113H258.922V137.472H283.281V113.113Z" fill="#FFBEA6"/>
<path d="M224.312 21.5842C206.406 3.69199 177.374 3.69199 159.467 21.5842L143.872 37.1679L128.276 21.5842C110.369 3.69199 81.3366 3.69199 63.4303 21.5842C45.5232 39.4766 45.5232 68.4857 63.4303 86.3779L143.872 166.755L224.312 86.3779C242.22 68.4857 242.22 39.4766 224.312 21.5842Z" fill="#E6E8EA"/>
<path fill-rule="evenodd" clip-rule="evenodd" d="M76.6916 58.8889C70.9669 58.8889 66.3262 63.4571 66.3262 69.0922V79.2959H112.97V69.0922C112.97 63.4571 108.329 58.8889 102.605 58.8889H96.9364L89.6483 66.1771L82.3601 58.8889H76.6916Z" fill="#5E6673"/>
<path fill-rule="evenodd" clip-rule="evenodd" d="M89.6493 53.0601C96.0894 53.0601 101.31 47.8393 101.31 41.3989C101.31 34.9587 96.0894 29.7378 89.6493 29.7378C83.2091 29.7378 77.9883 34.9586 77.9883 41.3989C77.9883 47.8393 83.2091 53.0601 89.6493 53.0601Z" fill="#CB8C54"/>
<path d="M101.31 41.397C101.31 34.9569 96.0894 29.7361 89.6493 29.7361C83.2091 29.7361 77.9883 34.9569 77.9883 41.397H101.31Z" fill="#2B2F36"/>
<path d="M94.0212 26.8216C94.0212 29.2367 92.0632 31.1945 89.6483 31.1945C87.2332 31.1945 85.2754 29.2367 85.2754 26.8216C85.2754 24.4065 87.2332 22.4487 89.6483 22.4487C92.0632 22.4487 94.0212 24.4065 94.0212 26.8216Z" fill="#2B2F36"/>
<path d="M82.3613 58.8889L89.6495 66.1771L96.9376 58.8889V79.2959H82.3613V58.8889Z" fill="#0B0E11"/>
<path fill-rule="evenodd" clip-rule="evenodd" d="M186.303 58.8894C180.578 58.8894 175.938 63.4576 175.938 69.0931V79.2963H222.582V69.0931C222.582 63.4576 217.941 58.8894 212.216 58.8894H206.548L199.26 66.1776L191.971 58.8894H186.303Z" fill="white"/>
<path fill-rule="evenodd" clip-rule="evenodd" d="M199.26 53.0579C205.701 53.0579 210.922 47.8371 210.922 41.3971C210.922 34.9567 205.701 29.7358 199.26 29.7358C192.82 29.7358 187.6 34.9567 187.6 41.3971C187.6 47.8371 192.82 53.0579 199.26 53.0579Z" fill="url(#paint3_linear)"/>
<path d="M210.922 41.3975C210.922 34.9574 205.701 29.7366 199.26 29.7366C192.82 29.7366 187.6 34.9574 187.6 41.3975H210.922Z" fill="#2B2F36"/>
<path fill-rule="evenodd" clip-rule="evenodd" d="M132.146 122.7C126.707 122.7 122.299 127.04 122.299 132.393V142.086H166.611V132.393C166.611 127.04 162.202 122.7 156.764 122.7H132.146Z" fill="url(#paint4_linear)"/>
<path fill-rule="evenodd" clip-rule="evenodd" d="M144.455 117.16C150.573 117.16 155.533 112.201 155.533 106.082C155.533 99.9644 150.573 95.0044 144.455 95.0044C138.337 95.0044 133.377 99.9644 133.377 106.082C133.377 112.201 138.337 117.16 144.455 117.16Z" fill="#CB8C54"/>
<path d="M155.533 106.083C155.533 99.9645 150.573 95.0049 144.455 95.0049C138.337 95.0049 133.377 99.9645 133.377 106.083H155.533Z" fill="#2B2F36"/>
<path d="M149.994 90.8498C149.994 93.909 147.514 96.389 144.455 96.389C141.396 96.389 138.916 93.909 138.916 90.8498C138.916 87.7906 141.396 85.311 144.455 85.311C147.514 85.311 149.994 87.7906 149.994 90.8498Z" fill="#2B2F36"/>
<path d="M137.531 122.699H151.379V142.085H137.531V122.699Z" fill="white"/>
<path d="M151.379 122.699V129.622L144.455 122.699L137.531 129.622V122.699H144.455H151.379Z" fill="#474D57"/>
<path d="M143.07 122.699H145.84V142.085H143.07V122.699Z" fill="#474D57"/>
<path d="M125.797 71.1355C125.797 66.6273 129.51 62.9727 134.089 62.9727H138.624L144.454 68.8033L150.285 62.9727H154.82C159.4 62.9727 163.112 66.6273 163.112 71.1355V79.2984H125.797V71.1355Z" fill="#AEB4BC"/>
<path d="M134.609 44.7546C135.876 40.4548 139.818 37.3196 144.485 37.3196C149.508 37.3196 153.692 40.9517 154.604 45.7587L158.447 59.4754H130.461L134.589 44.7428L134.609 44.7546Z" fill="#14151A"/>
<path d="M153.783 47.8142C153.783 52.9665 149.606 57.1432 144.454 57.1432C139.302 57.1432 135.125 52.9665 135.125 47.8142H153.783Z" fill="#E8A37D"/>
<path fill-rule="evenodd" clip-rule="evenodd" d="M182.159 104.951C178.724 104.951 175.939 107.692 175.939 111.073V117.195H203.926V111.073C203.926 107.692 201.142 104.951 197.707 104.951H194.306L189.933 109.324L185.56 104.951H182.159Z" fill="#76808F"/>
<path fill-rule="evenodd" clip-rule="evenodd" d="M189.932 101.453C193.796 101.453 196.929 98.3201 196.929 94.456C196.929 90.5919 193.796 87.4592 189.932 87.4592C186.068 87.4592 182.936 90.5919 182.936 94.456C182.936 98.3201 186.068 101.453 189.932 101.453Z" fill="#E8A37D"/>
<path d="M196.929 94.4563C196.929 90.5922 193.796 87.46 189.932 87.46C186.068 87.46 182.936 90.5922 182.936 94.4563H196.929Z" fill="#2B2F36"/>
<path fill-rule="evenodd" clip-rule="evenodd" d="M106.75 104.951C110.185 104.951 112.969 107.692 112.969 111.073V117.195H84.9824V111.073C84.9824 107.692 87.7668 104.951 91.2018 104.951H94.6026L98.9757 109.324L103.349 104.951H106.75Z" fill="#2B2F36"/>
<path d="M98.9762 109.324L94.6035 104.951V117.195H103.349V104.951L98.9762 109.324Z" fill="#76808F"/>
<path fill-rule="evenodd" clip-rule="evenodd" d="M98.9752 101.453C95.1112 101.453 91.9785 98.3201 91.9785 94.456C91.9785 90.5919 95.1112 87.4592 98.9752 87.4592C102.839 87.4592 105.972 90.5919 105.972 94.456C105.972 98.3201 102.839 101.453 98.9752 101.453Z" fill="#FFBEA6"/>
<path d="M91.9785 94.4563C91.9785 90.5922 95.1112 87.46 98.9752 87.46C102.839 87.46 105.972 90.5922 105.972 94.4563H91.9785Z" fill="white"/>
<path d="M95.4771 92.7078H88.4805V94.4567H95.4771V92.7078Z" fill="white"/>
<path d="M50 142.266L59.3289 132.937L68.6577 142.266L59.3289 151.595L50 142.266Z" fill="#E6E8EA"/>
<path d="M250.57 72.2992L257.567 65.3025L264.564 72.2992L257.567 79.296L250.57 72.2992Z" fill="#E6E8EA"/>
<path d="M161.947 30.9042L167.195 25.6567L172.442 30.9042L167.195 36.1517L161.947 30.9042Z" fill="white"/>
<path d="M165.445 163.255L170.11 158.591L174.774 163.255L170.11 167.92L165.445 163.255Z" fill="#E6E8EA"/>
</g>
<defs>
<linearGradient id="paint0_linear" x1="-1.65344e+06" y1="-1.65346e+06" x2="-1.6535e+06" y2="-1.6534e+06" gradientUnits="userSpaceOnUse">
<stop/>
<stop offset="1" stop-opacity="0"/>
</linearGradient>
<linearGradient id="paint1_linear" x1="230.321" y1="285.021" x2="128.279" y2="387.062" gradientUnits="userSpaceOnUse">
<stop stop-opacity="0"/>
<stop offset="0.581368"/>
</linearGradient>
<linearGradient id="paint2_linear" x1="264.77" y1="174.422" x2="188.8" y2="250.392" gradientUnits="userSpaceOnUse">
<stop/>
<stop offset="1" stop-opacity="0"/>
</linearGradient>
<linearGradient id="paint3_linear" x1="187.6" y1="41.3971" x2="210.922" y2="41.3971" gradientUnits="userSpaceOnUse">
<stop stop-color="#F0B90B"/>
<stop offset="1" stop-color="#F8D33A"/>
</linearGradient>
<linearGradient id="paint4_linear" x1="144.455" y1="142.086" x2="144.455" y2="122.7" gradientUnits="userSpaceOnUse">
<stop stop-color="#F0B90B"/>
<stop offset="1" stop-color="#F8D33A"/>
</linearGradient>
<clipPath id="clip0">
<rect width="280" height="280" fill="white" transform="translate(50)"/>
</clipPath>
</defs>
</svg>
