<svg width="480" height="272" viewBox="0 0 480 272" fill="none" xmlns="http://www.w3.org/2000/svg">
<path d="M109.366 106.25L109.366 132.042C109.366 140.878 116.53 148.042 125.366 148.042L145.585 148.042" stroke="#474D57" stroke-width="32"/>
<g style="mix-blend-mode:soft-light" opacity="0.6">
<path d="M109.366 106.25L109.366 132.042C109.366 140.878 116.53 148.042 125.366 148.042L145.585 148.042" stroke="url(#paint0_linear)" stroke-width="32"/>
</g>
<rect width="19.8591" height="19.8591" transform="matrix(0.708019 0.706193 0.708019 -0.706193 150.701 147.898)" fill="#FFBEA6"/>
<rect width="9.9167" height="30.5372" transform="matrix(6.41681e-08 -1 -1 -6.38375e-08 227.255 194.795)" fill="#28D294"/>
<g style="mix-blend-mode:soft-light" opacity="0.6">
<rect width="9.9167" height="30.5372" transform="matrix(6.41681e-08 -1 -1 -6.38375e-08 227.253 194.795)" fill="url(#paint1_linear)"/>
</g>
<path d="M197.968 147.573L194.141 143.756C187.102 136.736 175.691 136.736 168.652 143.756L162.155 150.237L161.949 180.495" stroke="#28D294" stroke-width="12"/>
<g style="mix-blend-mode:soft-light" opacity="0.6">
<path d="M197.969 147.573L194.142 143.756C187.103 136.736 175.691 136.736 168.653 143.756L162.156 150.237L161.95 180.495" stroke="url(#paint2_linear)" stroke-width="12"/>
</g>
<path d="M227.255 194.795L235.777 203.295L240.748 203.295L240.748 176.378L235.777 176.378L227.255 184.878L227.255 194.795Z" fill="#28D294"/>
<path d="M224.353 167.878L195.961 139.56L151.268 184.137L179.66 212.456L224.353 167.878Z" fill="#28D294"/>
<path d="M62.0569 197.67L62.0569 115.734" stroke="#929AA5" stroke-width="34.5346"/>
<path d="M36.7206 201.213L36.7204 135.615C36.7204 130.258 38.8467 125.123 42.6261 121.353L48.6465 115.348" stroke="#1E2026" stroke-width="40"/>
<path d="M63.917 254.292V201.167" stroke="#FFBEA6" stroke-width="24"/>
<path d="M39.0605 254.292V201.167" stroke="#FFBEA6" stroke-width="24"/>
<path d="M55.3926 272L72.4366 272L89.8981 272L72.4366 254.292L55.3926 254.292L55.3926 272Z" fill="#1E2026"/>
<path d="M30.5371 272L47.5811 272L65.0426 272L47.5811 254.292L30.5371 254.292L30.5371 272Z" fill="url(#paint3_linear)"/>
<path d="M25.3166 74.4549L25.3165 65.6247C25.3163 51.37 42.6114 44.2488 52.6927 54.3526L66.5033 68.1941" stroke="#474D57" stroke-width="32"/>
<g style="mix-blend-mode:soft-light" opacity="0.6">
<path d="M25.3166 74.4549L25.3165 65.6247C25.3163 51.37 42.6114 44.2488 52.6927 54.3526L66.5033 68.1941" stroke="url(#paint4_linear)" stroke-width="32"/>
</g>
<path d="M140.233 66.1313C140.233 76.3026 131.967 84.5481 121.769 84.5481C111.571 84.5481 103.305 76.3026 103.305 66.1313L140.233 66.1313Z" fill="#FFBEA6"/>
<path d="M140.233 66.1306C140.233 55.9593 131.967 47.7139 121.769 47.7139C111.571 47.7139 103.305 55.9593 103.305 66.1306L140.233 66.1306Z" fill="#1E2026"/>
<rect width="18.6028" height="18.6028" transform="matrix(0.708019 0.706193 0.708019 -0.706193 14.5264 92.4045)" fill="#FFBEA6"/>
<path d="M120.729 106.248L112.918 98.4567H95.8736L95.8736 81.4567L73.8584 59.4983L27.6975 105.54L74.5686 152.29L120.729 106.248Z" fill="#474D57"/>
<path d="M120.729 106.248L112.918 98.4565L98.7143 112.623L81.6703 95.6232L95.8736 81.4565L88.0618 73.6648L47.1219 114.499C40.5959 121.008 36.9297 129.837 36.9297 139.042V233.749H83.4457V143.436L120.729 106.248Z" fill="#28D294"/>
<path fill-rule="evenodd" clip-rule="evenodd" d="M36.9298 96.3327L83.4457 143.437L83.4492 143.434L91.9678 134.937L45.0967 88.1868L36.9298 96.3327Z" fill="#28D294"/>
<g style="mix-blend-mode:soft-light" opacity="0.6">
<path fill-rule="evenodd" clip-rule="evenodd" d="M91.9677 135.292L45.4518 88.1875L45.4482 88.191L36.9297 96.6875L83.8008 143.438L91.9677 135.292Z" fill="url(#paint5_linear)"/>
</g>
<path d="M95.4931 42.7554C95.4931 47.4498 99.3085 51.2554 104.015 51.2554H112.537V42.7554C112.537 38.061 108.722 34.2554 104.015 34.2554C99.3085 34.2554 95.4931 38.061 95.4931 42.7554Z" fill="#1E2026"/>
<path d="M316.736 272C316.736 234.054 285.895 203.292 247.85 203.292H240.748V176.375H247.495C306.989 176.375 356.964 217.027 371.022 272H316.736Z" fill="#E6E8EA"/>
<path d="M279.807 250.042L287.618 242.25L295.43 250.042L287.618 257.834L279.807 250.042Z" fill="#E6E8EA"/>
<path d="M345.142 257.834L350.823 252.167L356.504 257.834L350.823 263.501L345.142 257.834Z" fill="white"/>
<path d="M306.082 218.167L309.633 214.625L313.184 218.167L309.633 221.709L306.082 218.167Z" fill="white"/>
<path d="M260.632 231.626L264.183 228.084L267.734 231.626L264.183 235.168L260.632 231.626Z" fill="#E6E8EA"/>
<path d="M259.152 146.943C274.637 131.498 299.743 131.498 315.228 146.943L332.831 164.501C317.346 179.946 292.24 179.946 276.756 164.501L259.152 146.943Z" fill="#28D294"/>
<g style="mix-blend-mode:soft-light" opacity="0.6">
<path d="M259.152 146.943C274.637 131.498 299.743 131.498 315.228 146.943L332.831 164.501C317.346 179.946 292.24 179.946 276.756 164.501L259.152 146.943Z" fill="url(#paint6_linear)"/>
</g>
<path d="M352.714 97.5581L388.033 62.3303L409.362 41.104C428.868 21.6483 460.493 21.6483 479.999 41.104L444.681 76.3319L423.352 97.5581C403.846 117.014 372.22 117.014 352.714 97.5581Z" fill="#28D294"/>
<g style="mix-blend-mode:soft-light" opacity="0.6">
<path d="M352.714 97.5581L388.033 62.3303L409.362 41.104C428.868 21.6483 460.493 21.6483 479.999 41.104L444.681 76.3319L423.352 97.5581C403.846 117.014 372.22 117.014 352.714 97.5581Z" fill="url(#paint7_linear)"/>
</g>
<path d="M352.714 121.833H375.084H398.875C411.23 121.833 421.245 131.664 421.245 143.792L398.875 143.792L375.084 143.792C362.729 143.792 352.714 133.961 352.714 121.833Z" fill="#28D294"/>
<g style="mix-blend-mode:soft-light" opacity="0.6">
<path d="M352.714 121.833H375.084H398.875C411.23 121.833 421.245 131.664 421.245 143.792L398.875 143.792L375.084 143.792C362.729 143.792 352.714 133.961 352.714 121.833Z" fill="url(#paint8_linear)"/>
</g>
<path d="M337.089 133.837V239.405L348.452 250.738L348.452 213.804L387.622 174.735L384.107 171.228L348.452 206.792L348.452 67.2913H337.089V126.825L307.141 96.9538L303.626 100.46L337.089 133.837Z" fill="#02C076"/>
<path d="M303.427 39.4732C303.427 17.6728 321.145 3.8147e-05 343.002 3.8147e-05C364.859 3.8147e-05 382.577 17.6728 382.577 39.4732C382.577 61.2736 364.859 78.9463 343.002 78.9463C321.145 78.9463 303.427 61.2736 303.427 39.4732Z" fill="url(#paint9_linear)"/>
<path d="M311.096 39.4732C311.096 21.622 325.61 7.11935 343.552 7.11935C361.494 7.11935 376.008 21.622 376.008 39.4732C376.008 57.3244 361.494 71.827 343.552 71.827C325.61 71.827 311.096 57.3244 311.096 39.4732Z" stroke="#F8D33A" stroke-width="14.2386"/>
<path d="M278.148 95.6236C278.148 82.3227 288.958 71.5402 302.294 71.5402C315.629 71.5402 326.439 82.3227 326.439 95.6236C326.439 108.925 315.629 119.707 302.294 119.707C288.958 119.707 278.148 108.925 278.148 95.6236Z" fill="url(#paint10_linear)"/>
<path d="M282.388 95.8306C282.388 84.7864 291.367 75.8154 302.466 75.8154C313.564 75.8154 322.543 84.7864 322.543 95.8306C322.543 106.875 313.564 115.846 302.466 115.846C291.367 115.846 282.388 106.875 282.388 95.8306Z" stroke="#F8D33A" stroke-width="8.13635"/>
<path d="M316.504 138.127L322.895 131.752L329.287 138.127L322.895 144.502L316.504 138.127Z" fill="#02C076"/>
<path d="M356.265 229.629L364.787 221.129L373.309 229.629L364.787 238.129L356.265 229.629Z" fill="#02C076"/>
<path d="M459.239 225.252L455.688 228.793L452.138 225.252L455.688 221.71L459.239 225.252Z" fill="#F8D33A"/>
<g style="mix-blend-mode:soft-light" opacity="0.6">
<path d="M459.239 225.25L455.688 228.792L452.138 225.25L455.688 221.708L459.239 225.25Z" fill="url(#paint11_linear)"/>
</g>
<path d="M433.674 211.439L428.348 206.126L423.021 211.439L428.348 216.752L433.674 211.439Z" fill="#E6E8EA"/>
<path d="M400.426 249.707L399.162 250.968L397.897 249.707C396.434 248.248 394.062 248.248 392.599 249.707C391.136 251.166 391.136 253.532 392.599 254.991L399.162 261.537L405.724 254.991C407.188 253.532 407.188 251.166 405.724 249.707C404.261 248.248 401.889 248.248 400.426 249.707Z" fill="url(#paint12_linear)"/>
<path d="M396.609 262.608L389.835 255.852V259.913C389.835 261.284 390.381 262.599 391.353 263.568L398.126 270.324V266.263C398.126 264.892 397.58 263.577 396.609 262.608Z" fill="#02C076"/>
<path d="M401.717 262.608L408.491 255.852V259.913C408.491 261.284 407.945 262.599 406.973 263.568L400.199 270.324V266.263C400.199 264.892 400.745 263.577 401.717 262.608Z" fill="#02C076"/>
<path d="M444.992 249.707L443.727 250.968L442.463 249.707C441 248.248 438.628 248.248 437.165 249.707C435.702 251.166 435.702 253.532 437.165 254.991L443.727 261.537L450.29 254.991C451.753 253.532 451.753 251.166 450.29 249.707C448.827 248.248 446.455 248.248 444.992 249.707Z" fill="url(#paint13_linear)"/>
<path d="M441.174 262.608L434.4 255.852V259.913C434.4 261.284 434.946 262.599 435.918 263.568L442.692 270.324V266.263C442.692 264.892 442.146 263.577 441.174 262.608Z" fill="#02C076"/>
<path d="M446.282 262.608L453.056 255.852V259.913C453.056 261.284 452.51 262.599 451.538 263.568L444.765 270.324V266.263C444.765 264.892 445.311 263.577 446.282 262.608Z" fill="#02C076"/>
<path d="M382.046 224.185L380.506 225.798L378.966 224.185C377.185 222.319 374.296 222.319 372.515 224.185C370.733 226.051 370.733 229.076 372.515 230.941L380.506 239.311L388.498 230.942C390.28 229.076 390.28 226.051 388.498 224.185C386.717 222.319 383.828 222.319 382.046 224.185Z" fill="url(#paint14_linear)"/>
<path d="M252.061 63.8564L250.436 65.5512L248.81 63.8564C246.93 61.8956 243.881 61.8956 242 63.8565C240.12 65.8173 240.12 68.9961 242 70.9568L250.436 79.7527L258.871 70.9571C260.752 68.9963 260.752 65.8172 258.871 63.8564C256.991 61.8955 253.942 61.8955 252.061 63.8564Z" fill="url(#paint15_linear)"/>
<path d="M345.591 41.1307L343.195 43.6284L340.8 41.1307C338.028 38.2411 333.535 38.2412 330.764 41.1309C327.993 44.0204 327.993 48.7051 330.764 51.5946L343.195 64.5569L355.627 51.595C358.398 48.7054 358.398 44.0203 355.627 41.1307C352.855 38.2411 348.362 38.2411 345.591 41.1307Z" fill="#F0B90B"/>
<path d="M304.144 105.442L302.775 106.869L301.406 105.442C299.822 103.791 297.255 103.791 295.671 105.442C294.088 107.093 294.088 109.77 295.671 111.421L302.775 118.828L309.878 111.421C311.462 109.77 311.462 107.093 309.878 105.442C308.295 103.791 305.727 103.791 304.144 105.442Z" fill="#F0B90B"/>
<ellipse cx="393.133" cy="168.691" rx="18.4644" ry="18.4167" transform="rotate(-180 393.133 168.691)" fill="url(#paint16_linear)"/>
<path d="M377.78 168.691C377.78 160.245 384.646 153.385 393.133 153.385C401.62 153.385 408.487 160.245 408.487 168.691C408.487 177.137 401.62 183.997 393.133 183.997C384.646 183.997 377.78 177.137 377.78 168.691Z" stroke="#F8D33A" stroke-width="6.22192"/>
<path d="M393.97 182.598L392.943 183.669L391.916 182.598C390.729 181.36 388.803 181.36 387.615 182.599C386.428 183.837 386.428 185.845 387.615 187.083L392.943 192.638L398.271 187.083C399.459 185.845 399.459 183.837 398.271 182.598C397.083 181.36 395.157 181.36 393.97 182.598Z" fill="#F0B90B"/>
<path d="M267.186 36.1547L266.501 36.8683L265.817 36.1547C265.025 35.3291 263.741 35.3291 262.949 36.1547C262.158 36.9803 262.158 38.3188 262.949 39.1444L266.501 42.8479L270.053 39.1445C270.845 38.3189 270.845 36.9803 270.053 36.1547C269.261 35.3291 267.977 35.3291 267.186 36.1547Z" fill="url(#paint17_linear)"/>
<defs>
<linearGradient id="paint0_linear" x1="109.366" y1="127.146" x2="145.585" y2="127.146" gradientUnits="userSpaceOnUse">
<stop stop-opacity="0.3"/>
<stop offset="1" stop-opacity="0"/>
</linearGradient>
<linearGradient id="paint1_linear" x1="4.37615" y1="2.321" x2="4.37614" y2="15.2686" gradientUnits="userSpaceOnUse">
<stop stop-opacity="0"/>
<stop offset="1"/>
</linearGradient>
<linearGradient id="paint2_linear" x1="189.683" y1="139.309" x2="165.469" y2="163.586" gradientUnits="userSpaceOnUse">
<stop stop-opacity="0"/>
<stop offset="1"/>
</linearGradient>
<linearGradient id="paint3_linear" x1="58.7391" y1="275.205" x2="58.5311" y2="252.062" gradientUnits="userSpaceOnUse">
<stop stop-color="#2B2F36"/>
<stop offset="1" stop-color="#474D57"/>
</linearGradient>
<linearGradient id="paint4_linear" x1="54.6871" y1="79.9799" x2="13.5071" y2="38.6934" gradientUnits="userSpaceOnUse">
<stop stop-opacity="0.3"/>
<stop offset="1" stop-opacity="0"/>
</linearGradient>
<linearGradient id="paint5_linear" x1="44.0314" y1="87.8333" x2="74.1958" y2="118.076" gradientUnits="userSpaceOnUse">
<stop stop-opacity="0"/>
<stop offset="1"/>
</linearGradient>
<linearGradient id="paint6_linear" x1="310.691" y1="169.49" x2="268.543" y2="169.49" gradientUnits="userSpaceOnUse">
<stop/>
<stop offset="1" stop-opacity="0"/>
</linearGradient>
<linearGradient id="paint7_linear" x1="359.46" y1="103.249" x2="430.832" y2="103.249" gradientUnits="userSpaceOnUse">
<stop/>
<stop offset="1" stop-opacity="0"/>
</linearGradient>
<linearGradient id="paint8_linear" x1="352.714" y1="121.833" x2="420.89" y2="121.833" gradientUnits="userSpaceOnUse">
<stop/>
<stop offset="1" stop-opacity="0"/>
</linearGradient>
<linearGradient id="paint9_linear" x1="343.002" y1="78.9463" x2="343.002" y2="3.8147e-05" gradientUnits="userSpaceOnUse">
<stop stop-color="#F0B90B"/>
<stop offset="1" stop-color="#F8D33A"/>
</linearGradient>
<linearGradient id="paint10_linear" x1="302.294" y1="119.707" x2="302.294" y2="71.5402" gradientUnits="userSpaceOnUse">
<stop stop-color="#F0B90B"/>
<stop offset="1" stop-color="#F8D33A"/>
</linearGradient>
<linearGradient id="paint11_linear" x1="455.688" y1="228.792" x2="455.688" y2="221.708" gradientUnits="userSpaceOnUse">
<stop/>
<stop offset="1" stop-opacity="0"/>
</linearGradient>
<linearGradient id="paint12_linear" x1="399.162" y1="261.537" x2="399.162" y2="248.612" gradientUnits="userSpaceOnUse">
<stop stop-color="#F0B90B"/>
<stop offset="1" stop-color="#F8D33A"/>
</linearGradient>
<linearGradient id="paint13_linear" x1="443.727" y1="261.537" x2="443.727" y2="248.612" gradientUnits="userSpaceOnUse">
<stop stop-color="#F0B90B"/>
<stop offset="1" stop-color="#F8D33A"/>
</linearGradient>
<linearGradient id="paint14_linear" x1="380.507" y1="239.311" x2="380.507" y2="222.785" gradientUnits="userSpaceOnUse">
<stop stop-color="#F0B90B"/>
<stop offset="1" stop-color="#F8D33A"/>
</linearGradient>
<linearGradient id="paint15_linear" x1="250.436" y1="79.7527" x2="250.436" y2="62.3857" gradientUnits="userSpaceOnUse">
<stop stop-color="#F0B90B"/>
<stop offset="1" stop-color="#F8D33A"/>
</linearGradient>
<linearGradient id="paint16_linear" x1="393.133" y1="150.274" x2="393.133" y2="187.108" gradientUnits="userSpaceOnUse">
<stop stop-color="#F0B90B"/>
<stop offset="1" stop-color="#F8D33A"/>
</linearGradient>
<linearGradient id="paint17_linear" x1="266.501" y1="42.8479" x2="266.501" y2="35.5355" gradientUnits="userSpaceOnUse">
<stop stop-color="#F0B90B"/>
<stop offset="1" stop-color="#F8D33A"/>
</linearGradient>
</defs>
</svg>
