<svg width="96" height="96" viewBox="0 0 96 96" fill="none" xmlns="http://www.w3.org/2000/svg"><path d="M45.0024 60.5919C42.2305 60.5919 39.7099 58.0397 37.6742 53.1469C37.323 52.2581 37.1758 51.3018 37.2433 50.3485C37.3108 49.3952 37.5914 48.4692 38.0643 47.6387C38.5389 46.9249 38.7146 46.0534 38.5536 45.2114C38.3925 44.3695 37.9076 43.6243 37.2031 43.136C36.2178 42.2423 35.5307 41.0676 35.2347 39.7707C35.1935 39.5962 35.1482 39.452 35.1042 39.3078C34.815 38.5434 34.2661 37.9052 33.5537 37.5048C32.8412 37.1045 32.0105 36.9677 31.2073 37.1183C29.8648 37.3621 28.497 37.4368 27.1359 37.3408C25.9816 37.2247 24.8813 36.7943 23.9547 36.0963C23.028 35.3983 22.3106 34.4595 21.8805 33.382C20.5984 30.1125 20.4337 26.5106 21.4121 23.1377C21.9387 21.2686 22.8741 19.54 24.1508 18.0768C25.4274 16.6137 27.0134 15.4526 28.7939 14.6776C30.6356 13.9034 32.6487 13.6275 34.6308 13.8775C36.613 14.1276 38.4945 14.8947 40.0863 16.102C40.6227 16.508 41.235 16.8023 41.8871 16.9674C43.6459 17.4598 45.5179 17.3594 47.2139 16.6817C48.0593 16.295 48.7697 15.6644 49.2539 14.8708C49.738 14.0773 49.9738 13.1571 49.9309 12.2285C49.8978 11.4323 49.6217 10.6653 49.1397 10.0307C48.7072 9.52691 48.1769 9.11619 47.581 8.82341C46.985 8.53063 46.3358 8.36189 45.6728 8.32742C44.789 8.31448 43.9212 8.08951 43.1424 7.67145C42.3637 7.25338 41.6967 6.65444 41.1975 5.92497L41.0368 5.62827V5.28762C41.058 3.60764 41.6653 1.98781 42.7538 0.708008L44.9241 2.39205C44.3391 3.07646 43.952 3.90762 43.8046 4.79587C44.4157 5.28337 45.1664 5.56297 45.9475 5.59393C46.9895 5.6556 48.0071 5.93499 48.9345 6.41408C49.862 6.89318 50.6787 7.56135 51.332 8.37549C52.1482 9.4481 52.6169 10.7446 52.6754 12.0911C52.7431 13.573 52.3656 15.0412 51.5915 16.3066C50.8174 17.5721 49.6822 18.5768 48.3321 19.1913C46.0928 20.1182 43.6097 20.2776 41.2703 19.6446C40.2553 19.3971 39.3011 18.9462 38.4654 18.319C37.2596 17.3837 35.8257 16.7878 34.3121 16.5929C32.7986 16.398 31.2605 16.6112 29.857 17.2105C28.4547 17.8253 27.2067 18.7442 26.2032 19.9007C25.1997 21.0572 24.4659 22.4223 24.0549 23.8973C23.2289 26.6896 23.3638 29.6783 24.4381 32.3848C24.6791 32.9899 25.0812 33.5174 25.6009 33.91C26.1206 34.3025 26.738 34.5451 27.3859 34.6114C28.5096 34.6862 29.6381 34.6212 30.7458 34.4177C32.1974 34.1608 33.6931 34.4253 34.9685 35.1645C36.2439 35.9038 37.2169 37.0702 37.7154 38.4575C37.7937 38.7103 37.8528 38.9177 37.905 39.1251C38.0728 39.87 38.4593 40.5478 39.0149 41.0715C40.1794 41.9798 40.9711 43.2831 41.2403 44.7352C41.5096 46.1874 41.2379 47.6878 40.4764 48.9533C40.1975 49.422 40.0286 49.9479 39.9825 50.4913C39.9363 51.0347 40.0141 51.5816 40.2099 52.0906C41.7909 55.89 43.6961 58.0191 45.2511 57.8282C45.8417 57.6441 50.2634 56.1565 50.4131 52.6442C50.3552 51.2904 50.8018 49.9634 51.6664 48.9201C52.531 47.8769 53.752 47.1917 55.093 46.9973C55.5259 46.8227 55.8923 46.5154 56.1397 46.1195C56.2218 45.9179 56.2218 45.6921 56.1397 45.4904C55.3384 44.0884 55.085 42.4392 55.4285 40.8612C55.772 39.2833 56.688 37.8887 57.9995 36.9466L61.8649 33.3381C62.0433 33.1818 62.1734 32.9779 62.2399 32.7502C62.2296 31.8376 61.864 30.9649 61.2206 30.3175H59.7797C58.8951 30.319 58.0342 30.0316 57.3279 29.499C56.6215 28.9665 56.1083 28.2179 55.8663 27.367C55.6676 26.652 55.3276 25.9841 54.8663 25.4028C54.3479 24.7953 54.0178 24.0499 53.9163 23.2578C53.8148 22.4657 53.9464 21.6612 54.2949 20.9426C54.6247 20.2552 55.1438 19.6762 55.7913 19.2735C56.4387 18.8708 57.1877 18.6612 57.9501 18.6693C61.1094 18.58 64.9555 17.7476 65.4939 16.6954L65.6478 16.3987L65.9225 16.2037C65.9706 16.1694 70.7796 12.7051 72.1408 8.49362L74.7507 9.33977C73.2809 13.8809 68.8442 17.4441 67.7453 18.2682C65.8689 21.0567 59.3882 21.3794 58.0668 21.4165H57.9253C57.6859 21.4102 57.4498 21.4735 57.2457 21.5989C57.0416 21.7242 56.8783 21.9062 56.7756 22.1226C56.6582 22.3661 56.614 22.6386 56.6484 22.9068C56.6828 23.175 56.7943 23.4275 56.9693 23.6335C57.6746 24.5053 58.1961 25.5108 58.5023 26.5895C58.5795 26.8695 58.7461 27.1166 58.9767 27.2931C59.2073 27.4697 59.4893 27.566 59.7797 27.5676H61.3456C61.8439 27.6092 62.3253 27.7678 62.7508 28.0303C63.1763 28.2928 63.534 28.6519 63.7948 29.0785C64.7156 30.334 65.1099 31.8993 64.8937 33.4411C64.6971 34.1744 64.2931 34.8355 63.7302 35.3449L59.8209 38.9946C56.8402 41.5166 58.4583 44.0179 58.5297 44.1237L58.6671 44.3984C58.8572 44.8566 58.9515 45.3489 58.9445 45.8449C58.9374 46.341 58.829 46.8303 58.6259 47.283C58.0397 48.3757 57.0707 49.2136 55.9048 49.636L55.63 49.7033C54.9157 49.7807 54.2591 50.1319 53.7981 50.683C53.3371 51.2342 53.1075 51.9425 53.1576 52.6593C52.9103 58.5246 46.1961 60.4257 45.9104 60.5039L45.773 60.5328C45.5183 60.5739 45.2605 60.5937 45.0024 60.5919Z" fill="#F0B90B"></path><path d="M52.1287 94.7748H49.3815C49.3815 87.7543 55.2716 83.2997 56.2853 82.5854C58.6204 80.2406 64.7234 81.3862 66.564 81.7997L66.803 81.8725C67.022 81.9206 67.2502 81.9065 67.4616 81.8317C67.673 81.7569 67.8593 81.6245 67.9994 81.4494C68.175 81.239 68.2858 80.9823 68.3185 80.7102C68.3511 80.4381 68.3042 80.1624 68.1835 79.9165C67.7138 78.8992 67.4621 77.795 67.4445 76.6747C67.4367 76.3845 67.3345 76.1047 67.1532 75.8779C66.972 75.6511 66.7217 75.4896 66.4404 75.4179L64.9294 75.0347C64.4558 74.872 64.0274 74.5998 63.6791 74.24C63.3308 73.8802 63.0725 73.4432 62.9253 72.9646C62.3417 71.5167 62.3491 69.8976 62.9459 68.4551C63.3115 67.7896 63.8672 67.2482 64.542 66.9002L69.2261 64.3397C72.7411 62.6378 71.7906 59.8165 71.748 59.6969L71.6793 59.3989C71.6079 58.9069 71.6381 58.4055 71.7681 57.9257C71.898 57.4459 72.1249 56.9978 72.4348 56.6091C73.2725 55.6944 74.4187 55.1215 75.6532 55.0006L75.7988 54.9882L75.9444 55.0047C76.6545 55.1067 77.3765 54.9309 77.9602 54.5138C78.5438 54.0967 78.9441 53.4706 79.0776 52.7657C80.7602 47.1339 87.7396 46.9636 88.0363 46.9595C92.2203 47.3001 94.8439 52.6256 95.3411 56.1201L92.62 56.5074C92.2477 53.8866 90.2766 49.9745 88.0143 49.7094C87.4003 49.7383 82.7465 50.0776 81.7355 53.4525C81.453 54.7774 80.6892 55.9503 79.5918 56.7445C78.4944 57.5387 77.1414 57.8976 75.7947 57.7519C75.3301 57.8138 74.8973 58.0216 74.5584 58.3453C74.4253 58.5216 74.3662 58.7429 74.3936 58.9621C74.8262 60.5189 74.6652 62.1809 73.9419 63.6258C73.2186 65.0707 71.9844 66.1955 70.4788 66.782L65.8401 69.3177C65.6357 69.4181 65.4655 69.5768 65.3511 69.7737C65.2357 70.2145 65.2088 70.6739 65.272 71.1251C65.3352 71.5764 65.4872 72.0107 65.7192 72.4028L67.1148 72.7572C67.9725 72.9745 68.7359 73.4655 69.2892 74.1559C69.8425 74.8463 70.1555 75.6983 70.1807 76.5827C70.1887 77.3206 70.3481 78.049 70.6491 78.7228C71.0024 79.4428 71.1386 80.2501 71.041 81.0462C70.9435 81.8423 70.6164 82.5928 70.0997 83.2063C69.617 83.7978 68.9724 84.2358 68.2447 84.4669C67.517 84.6979 66.7377 84.7119 66.0022 84.5071L65.8346 84.4549C62.8127 83.7969 58.9734 83.6719 58.2028 84.5441L57.9281 84.779C57.8883 84.8161 52.1287 88.7488 52.1287 94.7748Z" fill="#F0B90B"></path><path d="M19.1333 86.1505C18.9485 86.1504 18.7658 86.1125 18.5962 86.0393C18.2614 85.8965 17.9969 85.6266 17.8609 85.2889C17.7249 84.9513 17.7285 84.5735 17.8709 84.2385L18.1457 83.5915C18.9194 81.812 20.3677 80.4124 22.1726 79.7C23.9775 78.9877 25.9914 79.0208 27.7719 79.7921C28.2797 80.0042 28.8501 80.0107 29.3626 79.8103C29.8752 79.6099 30.2899 79.2182 30.5191 78.7179C30.633 78.4532 30.6923 78.1682 30.6936 77.88C30.694 77.4733 30.5749 77.0755 30.3513 76.7358C30.1276 76.3962 29.8091 76.1297 29.4353 75.9693C28.7239 75.6566 28.119 75.1433 27.6948 74.4921C27.2705 73.841 27.0453 73.0803 27.0466 72.3032C27.0457 71.7536 27.1599 71.2099 27.3818 70.707L29.3433 66.1741C29.5041 65.815 29.5916 65.4273 29.6008 65.0339C29.61 64.6405 29.5407 64.2492 29.3969 63.883C29.1799 63.3279 28.8032 62.8496 28.3144 62.5087C27.8255 62.1678 27.2465 61.9795 26.6507 61.9677C26.0548 61.956 25.4688 62.1212 24.9669 62.4426C24.465 62.7639 24.0697 63.227 23.831 63.7731C23.4683 64.5804 22.805 65.2144 21.982 65.5402C21.1591 65.866 20.2415 65.8579 19.4245 65.5176L15.908 63.9873C15.6491 63.8737 15.3702 63.8123 15.0875 63.8067C14.8048 63.801 14.5237 63.8513 14.2604 63.9545C13.9971 64.0578 13.7568 64.212 13.5533 64.4083C13.3497 64.6046 13.187 64.8392 13.0743 65.0986C12.3912 66.6674 11.3378 68.047 10.0043 69.1192C9.09256 69.8627 8.05323 70.4343 6.937 70.8059C6.76498 70.8648 6.58297 70.889 6.40154 70.877C6.2201 70.865 6.04286 70.8171 5.88008 70.7361C5.7173 70.6551 5.57222 70.5425 5.45327 70.405C5.33431 70.2675 5.24384 70.1077 5.18711 69.935C5.13037 69.7622 5.1085 69.5799 5.12276 69.3987C5.13702 69.2174 5.18713 69.0408 5.27017 68.879C5.35322 68.7172 5.46756 68.5736 5.60655 68.4564C5.74554 68.3391 5.90643 68.2507 6.07987 68.1961C6.88021 67.9258 7.62486 67.5125 8.27765 66.9763C9.26641 66.1858 10.048 65.1665 10.5551 64.0066C10.8122 63.416 11.1833 62.8819 11.6471 62.435C12.1109 61.988 12.6583 61.6369 13.258 61.4017C13.8577 61.1666 14.4978 61.052 15.1418 61.0646C15.7858 61.0772 16.421 61.2166 17.0111 61.475L20.511 62.9984C20.6616 63.0603 20.8305 63.0606 20.9813 62.9992C21.1322 62.9378 21.2528 62.8196 21.3173 62.6701C21.614 61.9695 22.0466 61.3347 22.5902 60.8024C23.1339 60.2701 23.7776 59.8509 24.4843 59.5691C25.191 59.2872 25.9466 59.1483 26.7073 59.1604C27.468 59.1725 28.2188 59.3353 28.9161 59.6394C29.6135 59.9436 30.2437 60.383 30.7701 60.9323C31.2965 61.4816 31.7088 62.1298 31.9831 62.8394C32.2573 63.5491 32.3881 64.3061 32.3679 65.0667C32.3477 65.8272 32.1768 66.5762 31.8653 67.2703L29.9051 71.8032C29.8349 71.9606 29.7985 72.1309 29.798 72.3032C29.7988 72.5451 29.8692 72.7818 30.0007 72.9849C30.1322 73.188 30.3193 73.349 30.5397 73.4488C31.4043 73.8226 32.1404 74.4415 32.6572 75.229C33.174 76.0165 33.4488 76.9381 33.4477 77.88C33.4482 78.6822 33.2491 79.4719 32.8683 80.1779C32.4875 80.8839 31.9369 81.4841 31.2663 81.9243C30.5957 82.3644 29.8261 82.6308 29.0268 82.6993C28.2276 82.7678 27.4239 82.6364 26.6881 82.3168C25.5774 81.8335 24.3203 81.8106 23.1927 82.253C22.065 82.6954 21.1589 83.567 20.6731 84.6767L20.3984 85.314C20.2929 85.5622 20.1167 85.7739 19.8917 85.9227C19.6668 86.0715 19.403 86.1507 19.1333 86.1505Z" fill="#F0B90B"></path><circle cx="48" cy="48" r="46.5" stroke="#F0B90B" stroke-width="3"></circle></svg>